<mxfile host="app.diagrams.net" modified="2021-09-14T15:24:31.800Z" agent="5.0 (Windows)" etag="7vEsVKI0OWsj0wNB2h1z" version="15.2.5" type="github">
  <diagram id="R2lEEEUBdFMjLlhIrx00" name="Page-1">
    <mxGraphModel dx="865" dy="478" grid="1" gridSize="10" guides="1" tooltips="1" connect="1" arrows="1" fold="1" page="1" pageScale="1" pageWidth="583" pageHeight="827" math="0" shadow="0" extFonts="Permanent Marker^https://fonts.googleapis.com/css?family=Permanent+Marker">
      <root>
        <mxCell id="0" />
        <mxCell id="1" parent="0" />
        <mxCell id="Jt9Z7zNZmHaMb9qWnDkR-48" style="edgeStyle=orthogonalEdgeStyle;rounded=0;orthogonalLoop=1;jettySize=auto;html=1;entryX=1;entryY=0.5;entryDx=0;entryDy=0;endArrow=none;endFill=0;" parent="1" edge="1">
          <mxGeometry relative="1" as="geometry">
            <Array as="points">
              <mxPoint x="360" y="40" />
              <mxPoint x="343" y="40" />
            </Array>
            <mxPoint x="342.5" y="45" as="targetPoint" />
          </mxGeometry>
        </mxCell>
        <mxCell id="Jt9Z7zNZmHaMb9qWnDkR-49" style="edgeStyle=orthogonalEdgeStyle;rounded=0;orthogonalLoop=1;jettySize=auto;html=1;entryX=0.5;entryY=0;entryDx=0;entryDy=0;endArrow=none;endFill=0;" parent="1" edge="1">
          <mxGeometry relative="1" as="geometry">
            <Array as="points">
              <mxPoint x="450" y="40" />
            </Array>
            <mxPoint x="450" y="60" as="targetPoint" />
          </mxGeometry>
        </mxCell>
        <mxCell id="n8OIhtuh5hcWIEXLE7ov-7" style="edgeStyle=orthogonalEdgeStyle;rounded=0;orthogonalLoop=1;jettySize=auto;html=1;entryX=1;entryY=0.5;entryDx=0;entryDy=0;endArrow=none;endFill=0;" parent="1" edge="1">
          <mxGeometry relative="1" as="geometry">
            <mxPoint x="688.75" y="444" as="sourcePoint" />
          </mxGeometry>
        </mxCell>
        <mxCell id="33tDdLWR7R1HScsL2yP_-4" style="edgeStyle=orthogonalEdgeStyle;rounded=0;orthogonalLoop=1;jettySize=auto;html=1;entryX=1;entryY=0.5;entryDx=0;entryDy=0;endArrow=none;endFill=0;" parent="1" edge="1">
          <mxGeometry relative="1" as="geometry">
            <mxPoint x="402.5" y="444" as="targetPoint" />
          </mxGeometry>
        </mxCell>
        <mxCell id="6TAUWBTZgKvuJMYYyiU--42" style="edgeStyle=orthogonalEdgeStyle;rounded=0;orthogonalLoop=1;jettySize=auto;html=1;endArrow=none;endFill=0;" parent="1" source="6TAUWBTZgKvuJMYYyiU--33" target="6TAUWBTZgKvuJMYYyiU--43" edge="1">
          <mxGeometry relative="1" as="geometry">
            <mxPoint x="110" y="1140" as="targetPoint" />
          </mxGeometry>
        </mxCell>
        <mxCell id="6TAUWBTZgKvuJMYYyiU--33" value="Pengguna" style="rounded=0;whiteSpace=wrap;html=1;" parent="1" vertex="1">
          <mxGeometry x="55" y="1000" width="110" height="40" as="geometry" />
        </mxCell>
        <mxCell id="6TAUWBTZgKvuJMYYyiU--124" style="edgeStyle=orthogonalEdgeStyle;rounded=0;orthogonalLoop=1;jettySize=auto;html=1;entryX=0;entryY=0.5;entryDx=0;entryDy=0;endArrow=none;endFill=0;" parent="1" source="6TAUWBTZgKvuJMYYyiU--35" target="6TAUWBTZgKvuJMYYyiU--33" edge="1">
          <mxGeometry relative="1" as="geometry" />
        </mxCell>
        <mxCell id="6TAUWBTZgKvuJMYYyiU--35" value="&lt;font style=&quot;font-size: 10px&quot;&gt;PASSWORD&lt;/font&gt;" style="ellipse;whiteSpace=wrap;html=1;" parent="1" vertex="1">
          <mxGeometry y="910" width="60" height="50" as="geometry" />
        </mxCell>
        <mxCell id="6TAUWBTZgKvuJMYYyiU--122" style="edgeStyle=orthogonalEdgeStyle;rounded=0;orthogonalLoop=1;jettySize=auto;html=1;entryX=0.5;entryY=0;entryDx=0;entryDy=0;endArrow=none;endFill=0;" parent="1" source="6TAUWBTZgKvuJMYYyiU--37" target="6TAUWBTZgKvuJMYYyiU--33" edge="1">
          <mxGeometry relative="1" as="geometry" />
        </mxCell>
        <mxCell id="6TAUWBTZgKvuJMYYyiU--37" value="&lt;font style=&quot;font-size: 10px&quot;&gt;USERNAME&lt;/font&gt;" style="ellipse;whiteSpace=wrap;html=1;" parent="1" vertex="1">
          <mxGeometry x="80" y="910" width="60" height="50" as="geometry" />
        </mxCell>
        <mxCell id="6TAUWBTZgKvuJMYYyiU--125" style="edgeStyle=orthogonalEdgeStyle;rounded=0;orthogonalLoop=1;jettySize=auto;html=1;entryX=1;entryY=0.5;entryDx=0;entryDy=0;endArrow=none;endFill=0;" parent="1" source="6TAUWBTZgKvuJMYYyiU--40" target="6TAUWBTZgKvuJMYYyiU--33" edge="1">
          <mxGeometry relative="1" as="geometry" />
        </mxCell>
        <mxCell id="6TAUWBTZgKvuJMYYyiU--40" value="Status" style="ellipse;whiteSpace=wrap;html=1;" parent="1" vertex="1">
          <mxGeometry x="165" y="910" width="60" height="50" as="geometry" />
        </mxCell>
        <mxCell id="6TAUWBTZgKvuJMYYyiU--45" style="edgeStyle=orthogonalEdgeStyle;rounded=0;orthogonalLoop=1;jettySize=auto;html=1;entryX=0;entryY=0.5;entryDx=0;entryDy=0;endArrow=none;endFill=0;" parent="1" source="6TAUWBTZgKvuJMYYyiU--43" target="6TAUWBTZgKvuJMYYyiU--44" edge="1">
          <mxGeometry relative="1" as="geometry" />
        </mxCell>
        <mxCell id="6TAUWBTZgKvuJMYYyiU--43" value="check_pendataan" style="rhombus;whiteSpace=wrap;html=1;" parent="1" vertex="1">
          <mxGeometry x="40" y="1101" width="110" height="89" as="geometry" />
        </mxCell>
        <mxCell id="6TAUWBTZgKvuJMYYyiU--60" style="edgeStyle=orthogonalEdgeStyle;rounded=0;orthogonalLoop=1;jettySize=auto;html=1;endArrow=none;endFill=0;" parent="1" source="6TAUWBTZgKvuJMYYyiU--44" target="6TAUWBTZgKvuJMYYyiU--61" edge="1">
          <mxGeometry relative="1" as="geometry">
            <mxPoint x="410" y="1020" as="targetPoint" />
          </mxGeometry>
        </mxCell>
        <mxCell id="6TAUWBTZgKvuJMYYyiU--130" value="1" style="edgeLabel;html=1;align=center;verticalAlign=middle;resizable=0;points=[];" parent="6TAUWBTZgKvuJMYYyiU--60" vertex="1" connectable="0">
          <mxGeometry x="0.8286" y="-1" relative="1" as="geometry">
            <mxPoint x="4" y="-5" as="offset" />
          </mxGeometry>
        </mxCell>
        <mxCell id="6TAUWBTZgKvuJMYYyiU--44" value="Petugas" style="rounded=0;whiteSpace=wrap;html=1;" parent="1" vertex="1">
          <mxGeometry x="290" y="1110" width="90" height="40" as="geometry" />
        </mxCell>
        <mxCell id="6TAUWBTZgKvuJMYYyiU--47" style="edgeStyle=orthogonalEdgeStyle;rounded=0;orthogonalLoop=1;jettySize=auto;html=1;entryX=1;entryY=0.133;entryDx=0;entryDy=0;entryPerimeter=0;endArrow=none;endFill=0;" parent="1" source="6TAUWBTZgKvuJMYYyiU--46" target="6TAUWBTZgKvuJMYYyiU--44" edge="1">
          <mxGeometry relative="1" as="geometry" />
        </mxCell>
        <mxCell id="6TAUWBTZgKvuJMYYyiU--46" value="Status Petugas" style="ellipse;whiteSpace=wrap;html=1;" parent="1" vertex="1">
          <mxGeometry x="450" y="1070" width="60" height="40" as="geometry" />
        </mxCell>
        <mxCell id="6TAUWBTZgKvuJMYYyiU--56" style="edgeStyle=orthogonalEdgeStyle;rounded=0;orthogonalLoop=1;jettySize=auto;html=1;entryX=1;entryY=0.75;entryDx=0;entryDy=0;endArrow=none;endFill=0;" parent="1" source="6TAUWBTZgKvuJMYYyiU--48" target="6TAUWBTZgKvuJMYYyiU--44" edge="1">
          <mxGeometry relative="1" as="geometry">
            <Array as="points">
              <mxPoint x="420" y="1190" />
              <mxPoint x="420" y="1160" />
              <mxPoint x="380" y="1160" />
            </Array>
          </mxGeometry>
        </mxCell>
        <mxCell id="6TAUWBTZgKvuJMYYyiU--48" value="nama" style="ellipse;whiteSpace=wrap;html=1;" parent="1" vertex="1">
          <mxGeometry x="440" y="1201" width="60" height="40" as="geometry" />
        </mxCell>
        <mxCell id="6TAUWBTZgKvuJMYYyiU--50" style="edgeStyle=orthogonalEdgeStyle;rounded=0;orthogonalLoop=1;jettySize=auto;html=1;entryX=1;entryY=0.25;entryDx=0;entryDy=0;endArrow=none;endFill=0;" parent="1" source="6TAUWBTZgKvuJMYYyiU--49" target="6TAUWBTZgKvuJMYYyiU--44" edge="1">
          <mxGeometry relative="1" as="geometry">
            <Array as="points">
              <mxPoint x="380" y="1140" />
            </Array>
          </mxGeometry>
        </mxCell>
        <mxCell id="6TAUWBTZgKvuJMYYyiU--49" value="Telephone" style="ellipse;whiteSpace=wrap;html=1;" parent="1" vertex="1">
          <mxGeometry x="460" y="1120" width="60" height="40" as="geometry" />
        </mxCell>
        <mxCell id="6TAUWBTZgKvuJMYYyiU--71" style="edgeStyle=orthogonalEdgeStyle;rounded=0;orthogonalLoop=1;jettySize=auto;html=1;entryX=0;entryY=1;entryDx=0;entryDy=0;endArrow=none;endFill=0;" parent="1" source="6TAUWBTZgKvuJMYYyiU--51" target="6TAUWBTZgKvuJMYYyiU--66" edge="1">
          <mxGeometry relative="1" as="geometry" />
        </mxCell>
        <mxCell id="6TAUWBTZgKvuJMYYyiU--51" value="Id_lahan" style="ellipse;whiteSpace=wrap;html=1;fontStyle=4" parent="1" vertex="1">
          <mxGeometry x="278" y="900" width="60" height="40" as="geometry" />
        </mxCell>
        <mxCell id="6TAUWBTZgKvuJMYYyiU--73" style="edgeStyle=orthogonalEdgeStyle;rounded=0;orthogonalLoop=1;jettySize=auto;html=1;entryX=1;entryY=1;entryDx=0;entryDy=0;endArrow=none;endFill=0;" parent="1" source="6TAUWBTZgKvuJMYYyiU--52" target="6TAUWBTZgKvuJMYYyiU--66" edge="1">
          <mxGeometry relative="1" as="geometry" />
        </mxCell>
        <mxCell id="6TAUWBTZgKvuJMYYyiU--52" value="Id_petugas" style="ellipse;whiteSpace=wrap;html=1;fontStyle=4" parent="1" vertex="1">
          <mxGeometry x="440" y="920" width="60" height="40" as="geometry" />
        </mxCell>
        <mxCell id="6TAUWBTZgKvuJMYYyiU--68" style="edgeStyle=orthogonalEdgeStyle;rounded=0;orthogonalLoop=1;jettySize=auto;html=1;entryX=0.25;entryY=0;entryDx=0;entryDy=0;endArrow=none;endFill=0;" parent="1" source="6TAUWBTZgKvuJMYYyiU--53" target="6TAUWBTZgKvuJMYYyiU--66" edge="1">
          <mxGeometry relative="1" as="geometry">
            <Array as="points">
              <mxPoint x="388" y="780" />
            </Array>
          </mxGeometry>
        </mxCell>
        <mxCell id="6TAUWBTZgKvuJMYYyiU--53" value="Status_Lahan" style="ellipse;whiteSpace=wrap;html=1;" parent="1" vertex="1">
          <mxGeometry x="190" y="760" width="80" height="50" as="geometry" />
        </mxCell>
        <mxCell id="6TAUWBTZgKvuJMYYyiU--58" style="edgeStyle=orthogonalEdgeStyle;rounded=0;orthogonalLoop=1;jettySize=auto;html=1;entryX=0;entryY=1;entryDx=0;entryDy=0;endArrow=none;endFill=0;" parent="1" source="6TAUWBTZgKvuJMYYyiU--54" target="6TAUWBTZgKvuJMYYyiU--44" edge="1">
          <mxGeometry relative="1" as="geometry" />
        </mxCell>
        <mxCell id="6TAUWBTZgKvuJMYYyiU--54" value="id_petugas" style="ellipse;whiteSpace=wrap;html=1;fontStyle=4" parent="1" vertex="1">
          <mxGeometry x="260" y="1201" width="60" height="40" as="geometry" />
        </mxCell>
        <mxCell id="6TAUWBTZgKvuJMYYyiU--57" style="edgeStyle=orthogonalEdgeStyle;rounded=0;orthogonalLoop=1;jettySize=auto;html=1;entryX=0.5;entryY=1;entryDx=0;entryDy=0;endArrow=none;endFill=0;" parent="1" source="6TAUWBTZgKvuJMYYyiU--55" target="6TAUWBTZgKvuJMYYyiU--44" edge="1">
          <mxGeometry relative="1" as="geometry" />
        </mxCell>
        <mxCell id="6TAUWBTZgKvuJMYYyiU--55" value="&lt;font style=&quot;font-size: 9px&quot;&gt;Jenis_Kelamin&lt;/font&gt;" style="ellipse;whiteSpace=wrap;html=1;" parent="1" vertex="1">
          <mxGeometry x="330" y="1190" width="60" height="50" as="geometry" />
        </mxCell>
        <mxCell id="6TAUWBTZgKvuJMYYyiU--67" value="1" style="edgeStyle=orthogonalEdgeStyle;rounded=0;orthogonalLoop=1;jettySize=auto;html=1;entryX=0.5;entryY=1;entryDx=0;entryDy=0;endArrow=none;endFill=0;spacingTop=8;spacingBottom=18;" parent="1" source="6TAUWBTZgKvuJMYYyiU--61" target="6TAUWBTZgKvuJMYYyiU--66" edge="1">
          <mxGeometry x="-1" y="-5" relative="1" as="geometry">
            <mxPoint as="offset" />
            <Array as="points">
              <mxPoint x="410" y="890" />
            </Array>
          </mxGeometry>
        </mxCell>
        <mxCell id="6TAUWBTZgKvuJMYYyiU--61" value="Memiliki" style="rhombus;whiteSpace=wrap;html=1;" parent="1" vertex="1">
          <mxGeometry x="370" y="950" width="80" height="60" as="geometry" />
        </mxCell>
        <mxCell id="6TAUWBTZgKvuJMYYyiU--70" style="edgeStyle=orthogonalEdgeStyle;rounded=0;orthogonalLoop=1;jettySize=auto;html=1;entryX=0;entryY=0.5;entryDx=0;entryDy=0;endArrow=none;endFill=0;" parent="1" source="6TAUWBTZgKvuJMYYyiU--62" target="6TAUWBTZgKvuJMYYyiU--66" edge="1">
          <mxGeometry relative="1" as="geometry" />
        </mxCell>
        <mxCell id="6TAUWBTZgKvuJMYYyiU--62" value="Nama_lahan" style="ellipse;whiteSpace=wrap;html=1;" parent="1" vertex="1">
          <mxGeometry x="190" y="850" width="80" height="40" as="geometry" />
        </mxCell>
        <mxCell id="6TAUWBTZgKvuJMYYyiU--69" style="edgeStyle=orthogonalEdgeStyle;rounded=0;orthogonalLoop=1;jettySize=auto;html=1;entryX=0;entryY=0;entryDx=0;entryDy=0;endArrow=none;endFill=0;" parent="1" source="6TAUWBTZgKvuJMYYyiU--63" target="6TAUWBTZgKvuJMYYyiU--66" edge="1">
          <mxGeometry relative="1" as="geometry">
            <Array as="points">
              <mxPoint x="360" y="820" />
            </Array>
          </mxGeometry>
        </mxCell>
        <mxCell id="6TAUWBTZgKvuJMYYyiU--63" value="alamat_lahan" style="ellipse;whiteSpace=wrap;html=1;" parent="1" vertex="1">
          <mxGeometry x="260" y="800" width="78" height="50" as="geometry" />
        </mxCell>
        <mxCell id="6TAUWBTZgKvuJMYYyiU--74" style="edgeStyle=orthogonalEdgeStyle;rounded=0;orthogonalLoop=1;jettySize=auto;html=1;entryX=1;entryY=0;entryDx=0;entryDy=0;endArrow=none;endFill=0;" parent="1" source="6TAUWBTZgKvuJMYYyiU--64" target="6TAUWBTZgKvuJMYYyiU--66" edge="1">
          <mxGeometry relative="1" as="geometry" />
        </mxCell>
        <mxCell id="6TAUWBTZgKvuJMYYyiU--64" value="Luas&lt;br&gt;Lahan" style="ellipse;whiteSpace=wrap;html=1;" parent="1" vertex="1">
          <mxGeometry x="460" y="787" width="60" height="40" as="geometry" />
        </mxCell>
        <mxCell id="6TAUWBTZgKvuJMYYyiU--76" style="edgeStyle=orthogonalEdgeStyle;rounded=0;orthogonalLoop=1;jettySize=auto;html=1;entryX=0;entryY=0.5;entryDx=0;entryDy=0;endArrow=none;endFill=0;" parent="1" source="6TAUWBTZgKvuJMYYyiU--66" target="6TAUWBTZgKvuJMYYyiU--75" edge="1">
          <mxGeometry relative="1" as="geometry" />
        </mxCell>
        <mxCell id="6TAUWBTZgKvuJMYYyiU--66" value="Lahan" style="rounded=0;whiteSpace=wrap;html=1;" parent="1" vertex="1">
          <mxGeometry x="360" y="850" width="110" height="40" as="geometry" />
        </mxCell>
        <mxCell id="6TAUWBTZgKvuJMYYyiU--79" value="N" style="edgeStyle=orthogonalEdgeStyle;rounded=0;orthogonalLoop=1;jettySize=auto;html=1;entryX=0;entryY=0.5;entryDx=0;entryDy=0;endArrow=none;endFill=0;shape=link;" parent="1" source="6TAUWBTZgKvuJMYYyiU--75" target="6TAUWBTZgKvuJMYYyiU--78" edge="1">
          <mxGeometry x="-1" y="-10" relative="1" as="geometry">
            <mxPoint as="offset" />
          </mxGeometry>
        </mxCell>
        <mxCell id="6TAUWBTZgKvuJMYYyiU--75" value="Memiliki" style="rhombus;whiteSpace=wrap;html=1;" parent="1" vertex="1">
          <mxGeometry x="540" y="840" width="80" height="60" as="geometry" />
        </mxCell>
        <mxCell id="6TAUWBTZgKvuJMYYyiU--85" style="edgeStyle=orthogonalEdgeStyle;rounded=0;orthogonalLoop=1;jettySize=auto;html=1;entryX=0.5;entryY=1;entryDx=0;entryDy=0;endArrow=none;endFill=0;" parent="1" source="6TAUWBTZgKvuJMYYyiU--77" target="6TAUWBTZgKvuJMYYyiU--84" edge="1">
          <mxGeometry relative="1" as="geometry" />
        </mxCell>
        <mxCell id="6TAUWBTZgKvuJMYYyiU--77" value="Lahan" style="rounded=0;whiteSpace=wrap;html=1;" parent="1" vertex="1">
          <mxGeometry x="360" y="850" width="110" height="40" as="geometry" />
        </mxCell>
        <mxCell id="6TAUWBTZgKvuJMYYyiU--82" value="N" style="edgeStyle=orthogonalEdgeStyle;rounded=0;orthogonalLoop=1;jettySize=auto;html=1;endArrow=none;endFill=0;shape=link;" parent="1" source="6TAUWBTZgKvuJMYYyiU--78" target="6TAUWBTZgKvuJMYYyiU--81" edge="1">
          <mxGeometry x="0.7778" y="-10" relative="1" as="geometry">
            <mxPoint as="offset" />
          </mxGeometry>
        </mxCell>
        <mxCell id="6TAUWBTZgKvuJMYYyiU--135" value="1" style="edgeStyle=orthogonalEdgeStyle;rounded=0;orthogonalLoop=1;jettySize=auto;html=1;entryX=0.5;entryY=1;entryDx=0;entryDy=0;endArrow=none;endFill=0;spacingBottom=-13;" parent="1" source="6TAUWBTZgKvuJMYYyiU--78" target="6TAUWBTZgKvuJMYYyiU--134" edge="1">
          <mxGeometry x="1" y="-5" relative="1" as="geometry">
            <mxPoint as="offset" />
          </mxGeometry>
        </mxCell>
        <mxCell id="6TAUWBTZgKvuJMYYyiU--78" value="Penanaman" style="rounded=0;whiteSpace=wrap;html=1;" parent="1" vertex="1">
          <mxGeometry x="680" y="860" width="110" height="40" as="geometry" />
        </mxCell>
        <mxCell id="6TAUWBTZgKvuJMYYyiU--80" value="Hasil Panen" style="rounded=0;whiteSpace=wrap;html=1;" parent="1" vertex="1">
          <mxGeometry x="950" y="860" width="110" height="40" as="geometry" />
        </mxCell>
        <mxCell id="6TAUWBTZgKvuJMYYyiU--83" value="1" style="edgeStyle=orthogonalEdgeStyle;rounded=0;orthogonalLoop=1;jettySize=auto;html=1;endArrow=none;endFill=0;" parent="1" source="6TAUWBTZgKvuJMYYyiU--81" target="6TAUWBTZgKvuJMYYyiU--80" edge="1">
          <mxGeometry x="-1" y="-10" relative="1" as="geometry">
            <mxPoint as="offset" />
          </mxGeometry>
        </mxCell>
        <mxCell id="6TAUWBTZgKvuJMYYyiU--81" value="Memiliki" style="rhombus;whiteSpace=wrap;html=1;" parent="1" vertex="1">
          <mxGeometry x="835" y="850" width="80" height="60" as="geometry" />
        </mxCell>
        <mxCell id="6TAUWBTZgKvuJMYYyiU--84" value="Memiliki" style="rhombus;whiteSpace=wrap;html=1;" parent="1" vertex="1">
          <mxGeometry x="375" y="710" width="80" height="60" as="geometry" />
        </mxCell>
        <mxCell id="6TAUWBTZgKvuJMYYyiU--87" value="N" style="edgeStyle=orthogonalEdgeStyle;rounded=0;orthogonalLoop=1;jettySize=auto;html=1;entryX=0.5;entryY=0;entryDx=0;entryDy=0;endArrow=none;endFill=0;shape=link;width=5;spacingTop=5;spacingBottom=14;spacingRight=4;spacingLeft=9;" parent="1" source="6TAUWBTZgKvuJMYYyiU--86" target="6TAUWBTZgKvuJMYYyiU--84" edge="1">
          <mxGeometry x="1" y="5" relative="1" as="geometry">
            <mxPoint as="offset" />
          </mxGeometry>
        </mxCell>
        <mxCell id="6TAUWBTZgKvuJMYYyiU--86" value="Paket&lt;br&gt;Tanam" style="rounded=0;whiteSpace=wrap;html=1;" parent="1" vertex="1">
          <mxGeometry x="360" y="620" width="110" height="40" as="geometry" />
        </mxCell>
        <mxCell id="6TAUWBTZgKvuJMYYyiU--100" style="edgeStyle=orthogonalEdgeStyle;rounded=0;orthogonalLoop=1;jettySize=auto;html=1;entryX=0.75;entryY=1;entryDx=0;entryDy=0;endArrow=none;endFill=0;" parent="1" source="6TAUWBTZgKvuJMYYyiU--88" target="6TAUWBTZgKvuJMYYyiU--86" edge="1">
          <mxGeometry relative="1" as="geometry">
            <Array as="points">
              <mxPoint x="443" y="680" />
            </Array>
          </mxGeometry>
        </mxCell>
        <mxCell id="6TAUWBTZgKvuJMYYyiU--88" value="Nama_paket" style="ellipse;whiteSpace=wrap;html=1;" parent="1" vertex="1">
          <mxGeometry x="490" y="640" width="80" height="60" as="geometry" />
        </mxCell>
        <mxCell id="6TAUWBTZgKvuJMYYyiU--90" style="edgeStyle=orthogonalEdgeStyle;rounded=0;orthogonalLoop=1;jettySize=auto;html=1;entryX=0.75;entryY=0;entryDx=0;entryDy=0;endArrow=none;endFill=0;" parent="1" source="6TAUWBTZgKvuJMYYyiU--89" target="6TAUWBTZgKvuJMYYyiU--86" edge="1">
          <mxGeometry relative="1" as="geometry" />
        </mxCell>
        <mxCell id="6TAUWBTZgKvuJMYYyiU--89" value="Id_paket" style="ellipse;whiteSpace=wrap;html=1;fontStyle=4" parent="1" vertex="1">
          <mxGeometry x="500" y="580" width="60" height="40" as="geometry" />
        </mxCell>
        <mxCell id="6TAUWBTZgKvuJMYYyiU--99" style="edgeStyle=orthogonalEdgeStyle;rounded=0;orthogonalLoop=1;jettySize=auto;html=1;entryX=0.855;entryY=1.025;entryDx=0;entryDy=0;entryPerimeter=0;endArrow=none;endFill=0;" parent="1" source="6TAUWBTZgKvuJMYYyiU--92" target="6TAUWBTZgKvuJMYYyiU--78" edge="1">
          <mxGeometry relative="1" as="geometry" />
        </mxCell>
        <mxCell id="6TAUWBTZgKvuJMYYyiU--92" value="Status" style="ellipse;whiteSpace=wrap;html=1;" parent="1" vertex="1">
          <mxGeometry x="815" y="970" width="60" height="40" as="geometry" />
        </mxCell>
        <mxCell id="6TAUWBTZgKvuJMYYyiU--98" style="edgeStyle=orthogonalEdgeStyle;rounded=0;orthogonalLoop=1;jettySize=auto;html=1;entryX=1;entryY=1;entryDx=0;entryDy=0;endArrow=none;endFill=0;" parent="1" source="6TAUWBTZgKvuJMYYyiU--93" target="6TAUWBTZgKvuJMYYyiU--78" edge="1">
          <mxGeometry relative="1" as="geometry" />
        </mxCell>
        <mxCell id="6TAUWBTZgKvuJMYYyiU--93" value="Keterangan" style="ellipse;whiteSpace=wrap;html=1;" parent="1" vertex="1">
          <mxGeometry x="810" y="915" width="70" height="45" as="geometry" />
        </mxCell>
        <mxCell id="6TAUWBTZgKvuJMYYyiU--97" style="edgeStyle=orthogonalEdgeStyle;rounded=0;orthogonalLoop=1;jettySize=auto;html=1;entryX=1;entryY=0;entryDx=0;entryDy=0;endArrow=none;endFill=0;" parent="1" source="6TAUWBTZgKvuJMYYyiU--94" target="6TAUWBTZgKvuJMYYyiU--78" edge="1">
          <mxGeometry relative="1" as="geometry" />
        </mxCell>
        <mxCell id="6TAUWBTZgKvuJMYYyiU--94" value="id&lt;br&gt;Penanaman" style="ellipse;whiteSpace=wrap;html=1;fontStyle=4" parent="1" vertex="1">
          <mxGeometry x="810" y="790" width="80" height="60" as="geometry" />
        </mxCell>
        <mxCell id="6TAUWBTZgKvuJMYYyiU--96" style="edgeStyle=orthogonalEdgeStyle;rounded=0;orthogonalLoop=1;jettySize=auto;html=1;entryX=0.75;entryY=0;entryDx=0;entryDy=0;endArrow=none;endFill=0;" parent="1" source="6TAUWBTZgKvuJMYYyiU--95" target="6TAUWBTZgKvuJMYYyiU--78" edge="1">
          <mxGeometry relative="1" as="geometry" />
        </mxCell>
        <mxCell id="6TAUWBTZgKvuJMYYyiU--95" value="Id&lt;br&gt;lahan" style="ellipse;whiteSpace=wrap;html=1;fontStyle=4" parent="1" vertex="1">
          <mxGeometry x="820" y="750" width="60" height="40" as="geometry" />
        </mxCell>
        <mxCell id="6TAUWBTZgKvuJMYYyiU--107" style="edgeStyle=orthogonalEdgeStyle;rounded=0;orthogonalLoop=1;jettySize=auto;html=1;entryX=1;entryY=1;entryDx=0;entryDy=0;endArrow=none;endFill=0;exitX=0;exitY=0.5;exitDx=0;exitDy=0;" parent="1" source="6TAUWBTZgKvuJMYYyiU--102" target="6TAUWBTZgKvuJMYYyiU--80" edge="1">
          <mxGeometry relative="1" as="geometry">
            <Array as="points">
              <mxPoint x="1090" y="900" />
            </Array>
          </mxGeometry>
        </mxCell>
        <mxCell id="6TAUWBTZgKvuJMYYyiU--102" value="Jumlah_Panen" style="ellipse;whiteSpace=wrap;html=1;fontStyle=0" parent="1" vertex="1">
          <mxGeometry x="1080" y="878" width="80" height="52" as="geometry" />
        </mxCell>
        <mxCell id="6TAUWBTZgKvuJMYYyiU--108" style="edgeStyle=orthogonalEdgeStyle;rounded=0;orthogonalLoop=1;jettySize=auto;html=1;entryX=0.5;entryY=1;entryDx=0;entryDy=0;endArrow=none;endFill=0;" parent="1" source="6TAUWBTZgKvuJMYYyiU--103" target="6TAUWBTZgKvuJMYYyiU--102" edge="1">
          <mxGeometry relative="1" as="geometry" />
        </mxCell>
        <mxCell id="6TAUWBTZgKvuJMYYyiU--103" value="Satuan_Panen" style="ellipse;whiteSpace=wrap;html=1;fontStyle=0" parent="1" vertex="1">
          <mxGeometry x="1080" y="960" width="80" height="50" as="geometry" />
        </mxCell>
        <mxCell id="6TAUWBTZgKvuJMYYyiU--109" style="edgeStyle=orthogonalEdgeStyle;rounded=0;orthogonalLoop=1;jettySize=auto;html=1;entryX=0.75;entryY=0;entryDx=0;entryDy=0;endArrow=none;endFill=0;" parent="1" source="6TAUWBTZgKvuJMYYyiU--104" target="6TAUWBTZgKvuJMYYyiU--80" edge="1">
          <mxGeometry relative="1" as="geometry">
            <Array as="points">
              <mxPoint x="1033" y="810" />
              <mxPoint x="1033" y="810" />
            </Array>
          </mxGeometry>
        </mxCell>
        <mxCell id="6TAUWBTZgKvuJMYYyiU--104" value="Nama_Lahan" style="ellipse;whiteSpace=wrap;html=1;fontStyle=0" parent="1" vertex="1">
          <mxGeometry x="1003" y="740" width="77" height="60" as="geometry" />
        </mxCell>
        <mxCell id="6TAUWBTZgKvuJMYYyiU--111" value="Alat dan Bahan" style="rounded=0;whiteSpace=wrap;html=1;" parent="1" vertex="1">
          <mxGeometry x="680" y="640" width="110" height="40" as="geometry" />
        </mxCell>
        <mxCell id="6TAUWBTZgKvuJMYYyiU--119" style="edgeStyle=orthogonalEdgeStyle;rounded=0;orthogonalLoop=1;jettySize=auto;html=1;entryX=0.818;entryY=0;entryDx=0;entryDy=0;entryPerimeter=0;endArrow=none;endFill=0;" parent="1" source="6TAUWBTZgKvuJMYYyiU--112" target="6TAUWBTZgKvuJMYYyiU--111" edge="1">
          <mxGeometry relative="1" as="geometry" />
        </mxCell>
        <mxCell id="6TAUWBTZgKvuJMYYyiU--112" value="Ketegori" style="ellipse;whiteSpace=wrap;html=1;" parent="1" vertex="1">
          <mxGeometry x="800" y="590" width="60" height="40" as="geometry" />
        </mxCell>
        <mxCell id="6TAUWBTZgKvuJMYYyiU--118" style="edgeStyle=orthogonalEdgeStyle;rounded=0;orthogonalLoop=1;jettySize=auto;html=1;entryX=0.5;entryY=0;entryDx=0;entryDy=0;endArrow=none;endFill=0;" parent="1" source="6TAUWBTZgKvuJMYYyiU--113" target="6TAUWBTZgKvuJMYYyiU--111" edge="1">
          <mxGeometry relative="1" as="geometry" />
        </mxCell>
        <mxCell id="6TAUWBTZgKvuJMYYyiU--113" value="id&lt;br&gt;alat_bahan" style="ellipse;whiteSpace=wrap;html=1;fontStyle=4" parent="1" vertex="1">
          <mxGeometry x="697.5" y="570" width="75" height="40" as="geometry" />
        </mxCell>
        <mxCell id="6TAUWBTZgKvuJMYYyiU--117" style="edgeStyle=orthogonalEdgeStyle;rounded=0;orthogonalLoop=1;jettySize=auto;html=1;entryX=0.164;entryY=0;entryDx=0;entryDy=0;entryPerimeter=0;endArrow=none;endFill=0;" parent="1" source="6TAUWBTZgKvuJMYYyiU--114" target="6TAUWBTZgKvuJMYYyiU--111" edge="1">
          <mxGeometry relative="1" as="geometry" />
        </mxCell>
        <mxCell id="6TAUWBTZgKvuJMYYyiU--114" value="Harga" style="ellipse;whiteSpace=wrap;html=1;" parent="1" vertex="1">
          <mxGeometry x="610" y="590" width="60" height="40" as="geometry" />
        </mxCell>
        <mxCell id="6TAUWBTZgKvuJMYYyiU--116" style="edgeStyle=orthogonalEdgeStyle;rounded=0;orthogonalLoop=1;jettySize=auto;html=1;entryX=0.109;entryY=1;entryDx=0;entryDy=0;entryPerimeter=0;endArrow=none;endFill=0;" parent="1" source="6TAUWBTZgKvuJMYYyiU--115" target="6TAUWBTZgKvuJMYYyiU--111" edge="1">
          <mxGeometry relative="1" as="geometry" />
        </mxCell>
        <mxCell id="6TAUWBTZgKvuJMYYyiU--115" value="&lt;font style=&quot;font-size: 11px&quot;&gt;Nama_Alat/Bahan&lt;/font&gt;" style="ellipse;whiteSpace=wrap;html=1;" parent="1" vertex="1">
          <mxGeometry x="560" y="690" width="90" height="60" as="geometry" />
        </mxCell>
        <mxCell id="6TAUWBTZgKvuJMYYyiU--121" style="edgeStyle=orthogonalEdgeStyle;rounded=0;orthogonalLoop=1;jettySize=auto;html=1;endArrow=none;endFill=0;" parent="1" source="6TAUWBTZgKvuJMYYyiU--120" edge="1">
          <mxGeometry relative="1" as="geometry">
            <mxPoint x="780" y="680" as="targetPoint" />
          </mxGeometry>
        </mxCell>
        <mxCell id="6TAUWBTZgKvuJMYYyiU--120" value="Satuan" style="ellipse;whiteSpace=wrap;html=1;" parent="1" vertex="1">
          <mxGeometry x="800" y="700" width="60" height="40" as="geometry" />
        </mxCell>
        <mxCell id="6TAUWBTZgKvuJMYYyiU--127" style="edgeStyle=orthogonalEdgeStyle;rounded=0;orthogonalLoop=1;jettySize=auto;html=1;entryX=0;entryY=0;entryDx=0;entryDy=0;endArrow=none;endFill=0;" parent="1" source="6TAUWBTZgKvuJMYYyiU--126" target="6TAUWBTZgKvuJMYYyiU--44" edge="1">
          <mxGeometry relative="1" as="geometry" />
        </mxCell>
        <mxCell id="6TAUWBTZgKvuJMYYyiU--126" value="Password" style="ellipse;whiteSpace=wrap;html=1;" parent="1" vertex="1">
          <mxGeometry x="210" y="1040" width="60" height="40" as="geometry" />
        </mxCell>
        <mxCell id="6TAUWBTZgKvuJMYYyiU--131" value="1" style="edgeLabel;html=1;align=center;verticalAlign=middle;resizable=0;points=[];" parent="1" vertex="1" connectable="0">
          <mxGeometry x="425" y="1029.9999999999998" as="geometry">
            <mxPoint x="-5" y="-250" as="offset" />
          </mxGeometry>
        </mxCell>
        <mxCell id="6TAUWBTZgKvuJMYYyiU--132" value="1" style="edgeLabel;html=1;align=center;verticalAlign=middle;resizable=0;points=[];" parent="1" vertex="1" connectable="0">
          <mxGeometry x="540" y="1139.9999999999998" as="geometry">
            <mxPoint x="-5" y="-250" as="offset" />
          </mxGeometry>
        </mxCell>
        <mxCell id="6TAUWBTZgKvuJMYYyiU--136" value="N" style="edgeStyle=orthogonalEdgeStyle;rounded=0;orthogonalLoop=1;jettySize=auto;html=1;entryX=0.5;entryY=1;entryDx=0;entryDy=0;endArrow=none;endFill=0;shape=link;spacingRight=14;spacingTop=4;spacingBottom=7;" parent="1" source="6TAUWBTZgKvuJMYYyiU--134" target="6TAUWBTZgKvuJMYYyiU--111" edge="1">
          <mxGeometry x="-1" y="-15" relative="1" as="geometry">
            <mxPoint as="offset" />
          </mxGeometry>
        </mxCell>
        <mxCell id="6TAUWBTZgKvuJMYYyiU--134" value="Memiliki" style="rhombus;whiteSpace=wrap;html=1;" parent="1" vertex="1">
          <mxGeometry x="695" y="727" width="80" height="60" as="geometry" />
        </mxCell>
        <mxCell id="5vnelNIPE1DtTS0XhXeB-1" value="Transfer data" style="shape=rhombus;perimeter=rhombusPerimeter;whiteSpace=wrap;html=1;align=center;" parent="1" vertex="1">
          <mxGeometry x="915" y="990" width="120" height="60" as="geometry" />
        </mxCell>
        <mxCell id="5vnelNIPE1DtTS0XhXeB-3" value="" style="endArrow=none;html=1;rounded=0;entryX=0.5;entryY=0;entryDx=0;entryDy=0;" parent="1" target="5vnelNIPE1DtTS0XhXeB-1" edge="1">
          <mxGeometry relative="1" as="geometry">
            <mxPoint x="975" y="900" as="sourcePoint" />
            <mxPoint x="970" y="1110" as="targetPoint" />
          </mxGeometry>
        </mxCell>
        <mxCell id="5vnelNIPE1DtTS0XhXeB-9" value="M" style="text;html=1;align=center;verticalAlign=middle;resizable=0;points=[];autosize=1;strokeColor=none;fillColor=none;" parent="1" vertex="1">
          <mxGeometry x="950" y="970" width="30" height="20" as="geometry" />
        </mxCell>
        <mxCell id="5vnelNIPE1DtTS0XhXeB-11" value="N" style="text;html=1;align=center;verticalAlign=middle;resizable=0;points=[];autosize=1;strokeColor=none;fillColor=none;" parent="1" vertex="1">
          <mxGeometry x="955" y="1050" width="20" height="20" as="geometry" />
        </mxCell>
        <mxCell id="y0Holu1kycjpgfr48eUw-4" style="edgeStyle=orthogonalEdgeStyle;rounded=0;orthogonalLoop=1;jettySize=auto;html=1;entryX=0.25;entryY=1;entryDx=0;entryDy=0;endArrow=none;endFill=0;" parent="1" source="5vnelNIPE1DtTS0XhXeB-12" target="5vnelNIPE1DtTS0XhXeB-6" edge="1">
          <mxGeometry relative="1" as="geometry" />
        </mxCell>
        <mxCell id="5vnelNIPE1DtTS0XhXeB-12" value="Nama_Barang" style="ellipse;whiteSpace=wrap;html=1;align=center;fontStyle=0" parent="1" vertex="1">
          <mxGeometry x="872" y="1180" width="100" height="40" as="geometry" />
        </mxCell>
        <mxCell id="y0Holu1kycjpgfr48eUw-5" style="edgeStyle=orthogonalEdgeStyle;rounded=0;orthogonalLoop=1;jettySize=auto;html=1;entryX=0.75;entryY=1;entryDx=0;entryDy=0;endArrow=none;endFill=0;" parent="1" source="5vnelNIPE1DtTS0XhXeB-13" target="5vnelNIPE1DtTS0XhXeB-6" edge="1">
          <mxGeometry relative="1" as="geometry" />
        </mxCell>
        <mxCell id="5vnelNIPE1DtTS0XhXeB-13" value="Berat_Barang" style="ellipse;whiteSpace=wrap;html=1;align=center;fontStyle=0" parent="1" vertex="1">
          <mxGeometry x="991.5" y="1180" width="100" height="40" as="geometry" />
        </mxCell>
        <mxCell id="5vnelNIPE1DtTS0XhXeB-14" value="N" style="text;html=1;align=center;verticalAlign=middle;resizable=0;points=[];autosize=1;strokeColor=none;fillColor=none;" parent="1" vertex="1">
          <mxGeometry x="90" y="1081" width="20" height="20" as="geometry" />
        </mxCell>
        <mxCell id="5vnelNIPE1DtTS0XhXeB-15" value="1" style="text;html=1;align=center;verticalAlign=middle;resizable=0;points=[];autosize=1;strokeColor=none;fillColor=none;" parent="1" vertex="1">
          <mxGeometry x="145" y="1141" width="20" height="20" as="geometry" />
        </mxCell>
        <mxCell id="5vnelNIPE1DtTS0XhXeB-6" value="Gudang Penyimpanan" style="whiteSpace=wrap;html=1;align=center;fontStyle=0" parent="1" vertex="1">
          <mxGeometry x="925" y="1090" width="100" height="40" as="geometry" />
        </mxCell>
        <mxCell id="y0Holu1kycjpgfr48eUw-3" value="" style="endArrow=none;html=1;rounded=0;exitX=0.5;exitY=1;exitDx=0;exitDy=0;shape=link;" parent="1" source="5vnelNIPE1DtTS0XhXeB-1" target="5vnelNIPE1DtTS0XhXeB-6" edge="1">
          <mxGeometry relative="1" as="geometry">
            <mxPoint x="975" y="1050" as="sourcePoint" />
            <mxPoint x="975" y="1190" as="targetPoint" />
          </mxGeometry>
        </mxCell>
        <mxCell id="y0Holu1kycjpgfr48eUw-7" style="edgeStyle=orthogonalEdgeStyle;rounded=0;orthogonalLoop=1;jettySize=auto;html=1;entryX=0;entryY=0.5;entryDx=0;entryDy=0;endArrow=none;endFill=0;" parent="1" source="y0Holu1kycjpgfr48eUw-6" target="5vnelNIPE1DtTS0XhXeB-6" edge="1">
          <mxGeometry relative="1" as="geometry" />
        </mxCell>
        <mxCell id="y0Holu1kycjpgfr48eUw-6" value="Id_gudang" style="ellipse;whiteSpace=wrap;html=1;" parent="1" vertex="1">
          <mxGeometry x="792.5" y="1085" width="75" height="50" as="geometry" />
        </mxCell>
        <mxCell id="CzbepCGUsYYAVaa_Zoc8-1" value="pengguna" style="shape=table;startSize=30;container=1;collapsible=1;childLayout=tableLayout;fixedRows=1;rowLines=0;fontStyle=1;align=center;resizeLast=1;" parent="1" vertex="1">
          <mxGeometry x="70" y="1310" width="180" height="120" as="geometry" />
        </mxCell>
        <mxCell id="CzbepCGUsYYAVaa_Zoc8-2" value="" style="shape=partialRectangle;collapsible=0;dropTarget=0;pointerEvents=0;fillColor=none;top=0;left=0;bottom=1;right=0;points=[[0,0.5],[1,0.5]];portConstraint=eastwest;" parent="CzbepCGUsYYAVaa_Zoc8-1" vertex="1">
          <mxGeometry y="30" width="180" height="30" as="geometry" />
        </mxCell>
        <mxCell id="CzbepCGUsYYAVaa_Zoc8-3" value="PK" style="shape=partialRectangle;connectable=0;fillColor=none;top=0;left=0;bottom=0;right=0;fontStyle=1;overflow=hidden;" parent="CzbepCGUsYYAVaa_Zoc8-2" vertex="1">
          <mxGeometry width="30" height="30" as="geometry" />
        </mxCell>
        <mxCell id="CzbepCGUsYYAVaa_Zoc8-4" value="username" style="shape=partialRectangle;connectable=0;fillColor=none;top=0;left=0;bottom=0;right=0;align=left;spacingLeft=6;fontStyle=5;overflow=hidden;" parent="CzbepCGUsYYAVaa_Zoc8-2" vertex="1">
          <mxGeometry x="30" width="150" height="30" as="geometry" />
        </mxCell>
        <mxCell id="CzbepCGUsYYAVaa_Zoc8-5" value="" style="shape=partialRectangle;collapsible=0;dropTarget=0;pointerEvents=0;fillColor=none;top=0;left=0;bottom=0;right=0;points=[[0,0.5],[1,0.5]];portConstraint=eastwest;" parent="CzbepCGUsYYAVaa_Zoc8-1" vertex="1">
          <mxGeometry y="60" width="180" height="30" as="geometry" />
        </mxCell>
        <mxCell id="CzbepCGUsYYAVaa_Zoc8-6" value="" style="shape=partialRectangle;connectable=0;fillColor=none;top=0;left=0;bottom=0;right=0;editable=1;overflow=hidden;" parent="CzbepCGUsYYAVaa_Zoc8-5" vertex="1">
          <mxGeometry width="30" height="30" as="geometry" />
        </mxCell>
        <mxCell id="CzbepCGUsYYAVaa_Zoc8-7" value="password" style="shape=partialRectangle;connectable=0;fillColor=none;top=0;left=0;bottom=0;right=0;align=left;spacingLeft=6;overflow=hidden;" parent="CzbepCGUsYYAVaa_Zoc8-5" vertex="1">
          <mxGeometry x="30" width="150" height="30" as="geometry" />
        </mxCell>
        <mxCell id="CzbepCGUsYYAVaa_Zoc8-8" value="" style="shape=partialRectangle;collapsible=0;dropTarget=0;pointerEvents=0;fillColor=none;top=0;left=0;bottom=0;right=0;points=[[0,0.5],[1,0.5]];portConstraint=eastwest;" parent="CzbepCGUsYYAVaa_Zoc8-1" vertex="1">
          <mxGeometry y="90" width="180" height="30" as="geometry" />
        </mxCell>
        <mxCell id="CzbepCGUsYYAVaa_Zoc8-9" value="" style="shape=partialRectangle;connectable=0;fillColor=none;top=0;left=0;bottom=0;right=0;editable=1;overflow=hidden;" parent="CzbepCGUsYYAVaa_Zoc8-8" vertex="1">
          <mxGeometry width="30" height="30" as="geometry" />
        </mxCell>
        <mxCell id="CzbepCGUsYYAVaa_Zoc8-10" value="status" style="shape=partialRectangle;connectable=0;fillColor=none;top=0;left=0;bottom=0;right=0;align=left;spacingLeft=6;overflow=hidden;" parent="CzbepCGUsYYAVaa_Zoc8-8" vertex="1">
          <mxGeometry x="30" width="150" height="30" as="geometry" />
        </mxCell>
        <mxCell id="CzbepCGUsYYAVaa_Zoc8-14" value="check_pendaftaran" style="shape=rhombus;perimeter=rhombusPerimeter;whiteSpace=wrap;html=1;align=center;" parent="1" vertex="1">
          <mxGeometry x="350" y="1290" width="120" height="60" as="geometry" />
        </mxCell>
        <mxCell id="YzFgMG7s6t2CPko5BBMH-1" value="" style="endArrow=none;html=1;rounded=0;entryX=0;entryY=0.5;entryDx=0;entryDy=0;exitX=1;exitY=0.092;exitDx=0;exitDy=0;exitPerimeter=0;" edge="1" parent="1" source="CzbepCGUsYYAVaa_Zoc8-1" target="CzbepCGUsYYAVaa_Zoc8-14">
          <mxGeometry relative="1" as="geometry">
            <mxPoint x="450" y="1290" as="sourcePoint" />
            <mxPoint x="610" y="1290" as="targetPoint" />
          </mxGeometry>
        </mxCell>
        <mxCell id="YzFgMG7s6t2CPko5BBMH-2" value="N" style="resizable=0;html=1;align=right;verticalAlign=bottom;" connectable="0" vertex="1" parent="YzFgMG7s6t2CPko5BBMH-1">
          <mxGeometry x="1" relative="1" as="geometry" />
        </mxCell>
        <mxCell id="YzFgMG7s6t2CPko5BBMH-3" value="petugas" style="shape=table;startSize=30;container=1;collapsible=1;childLayout=tableLayout;fixedRows=1;rowLines=0;fontStyle=1;align=center;resizeLast=1;" vertex="1" parent="1">
          <mxGeometry x="540" y="1300" width="180" height="160" as="geometry" />
        </mxCell>
        <mxCell id="YzFgMG7s6t2CPko5BBMH-4" value="" style="shape=partialRectangle;collapsible=0;dropTarget=0;pointerEvents=0;fillColor=none;top=0;left=0;bottom=1;right=0;points=[[0,0.5],[1,0.5]];portConstraint=eastwest;" vertex="1" parent="YzFgMG7s6t2CPko5BBMH-3">
          <mxGeometry y="30" width="180" height="30" as="geometry" />
        </mxCell>
        <mxCell id="YzFgMG7s6t2CPko5BBMH-5" value="PK" style="shape=partialRectangle;connectable=0;fillColor=none;top=0;left=0;bottom=0;right=0;fontStyle=1;overflow=hidden;" vertex="1" parent="YzFgMG7s6t2CPko5BBMH-4">
          <mxGeometry width="30" height="30" as="geometry" />
        </mxCell>
        <mxCell id="YzFgMG7s6t2CPko5BBMH-6" value="id_petugas" style="shape=partialRectangle;connectable=0;fillColor=none;top=0;left=0;bottom=0;right=0;align=left;spacingLeft=6;fontStyle=5;overflow=hidden;" vertex="1" parent="YzFgMG7s6t2CPko5BBMH-4">
          <mxGeometry x="30" width="150" height="30" as="geometry" />
        </mxCell>
        <mxCell id="YzFgMG7s6t2CPko5BBMH-7" value="" style="shape=partialRectangle;collapsible=0;dropTarget=0;pointerEvents=0;fillColor=none;top=0;left=0;bottom=0;right=0;points=[[0,0.5],[1,0.5]];portConstraint=eastwest;" vertex="1" parent="YzFgMG7s6t2CPko5BBMH-3">
          <mxGeometry y="60" width="180" height="30" as="geometry" />
        </mxCell>
        <mxCell id="YzFgMG7s6t2CPko5BBMH-8" value="" style="shape=partialRectangle;connectable=0;fillColor=none;top=0;left=0;bottom=0;right=0;editable=1;overflow=hidden;" vertex="1" parent="YzFgMG7s6t2CPko5BBMH-7">
          <mxGeometry width="30" height="30" as="geometry" />
        </mxCell>
        <mxCell id="YzFgMG7s6t2CPko5BBMH-9" value="nama" style="shape=partialRectangle;connectable=0;fillColor=none;top=0;left=0;bottom=0;right=0;align=left;spacingLeft=6;overflow=hidden;" vertex="1" parent="YzFgMG7s6t2CPko5BBMH-7">
          <mxGeometry x="30" width="150" height="30" as="geometry" />
        </mxCell>
        <mxCell id="YzFgMG7s6t2CPko5BBMH-10" value="" style="shape=partialRectangle;collapsible=0;dropTarget=0;pointerEvents=0;fillColor=none;top=0;left=0;bottom=0;right=0;points=[[0,0.5],[1,0.5]];portConstraint=eastwest;" vertex="1" parent="YzFgMG7s6t2CPko5BBMH-3">
          <mxGeometry y="90" width="180" height="30" as="geometry" />
        </mxCell>
        <mxCell id="YzFgMG7s6t2CPko5BBMH-11" value="" style="shape=partialRectangle;connectable=0;fillColor=none;top=0;left=0;bottom=0;right=0;editable=1;overflow=hidden;" vertex="1" parent="YzFgMG7s6t2CPko5BBMH-10">
          <mxGeometry width="30" height="30" as="geometry" />
        </mxCell>
        <mxCell id="YzFgMG7s6t2CPko5BBMH-12" value="password" style="shape=partialRectangle;connectable=0;fillColor=none;top=0;left=0;bottom=0;right=0;align=left;spacingLeft=6;overflow=hidden;" vertex="1" parent="YzFgMG7s6t2CPko5BBMH-10">
          <mxGeometry x="30" width="150" height="30" as="geometry" />
        </mxCell>
        <mxCell id="YzFgMG7s6t2CPko5BBMH-13" value="" style="shape=partialRectangle;collapsible=0;dropTarget=0;pointerEvents=0;fillColor=none;top=0;left=0;bottom=0;right=0;points=[[0,0.5],[1,0.5]];portConstraint=eastwest;" vertex="1" parent="YzFgMG7s6t2CPko5BBMH-3">
          <mxGeometry y="120" width="180" height="30" as="geometry" />
        </mxCell>
        <mxCell id="YzFgMG7s6t2CPko5BBMH-14" value="" style="shape=partialRectangle;connectable=0;fillColor=none;top=0;left=0;bottom=0;right=0;editable=1;overflow=hidden;" vertex="1" parent="YzFgMG7s6t2CPko5BBMH-13">
          <mxGeometry width="30" height="30" as="geometry" />
        </mxCell>
        <mxCell id="YzFgMG7s6t2CPko5BBMH-15" value="jenis_kelamin" style="shape=partialRectangle;connectable=0;fillColor=none;top=0;left=0;bottom=0;right=0;align=left;spacingLeft=6;overflow=hidden;" vertex="1" parent="YzFgMG7s6t2CPko5BBMH-13">
          <mxGeometry x="30" width="150" height="30" as="geometry" />
        </mxCell>
      </root>
    </mxGraphModel>
  </diagram>
</mxfile>
